<?xml version="1.0" encoding="iso-8859-1"?>
<!-- Uploaded to: SVG Repo, www.svgrepo.com, Generator: SVG Repo Mixer Tools -->
<!DOCTYPE svg PUBLIC "-//W3C//DTD SVG 1.1//EN" "http://www.w3.org/Graphics/SVG/1.1/DTD/svg11.dtd">
<svg fill="#000000" version="1.1" id="Capa_1" xmlns="http://www.w3.org/2000/svg" xmlns:xlink="http://www.w3.org/1999/xlink" 
	 width="800px" height="800px" viewBox="0 0 750.909 750.91"
	 xml:space="preserve">
<g>
	<g>
		<path d="M685.258,324.931l-0.025-0.053c0.03,0.007,0.062,0.015,0.096,0.019C685.306,324.911,685.278,324.917,685.258,324.931z"/>
		<path d="M675.935,309.501c-0.003-0.001-0.005-0.001-0.006-0.001c0.001-0.016,0.006-0.032,0.006-0.047V309.501z"/>
	</g>
	<path d="M718.909,397.017l-43.955-0.268c17.686,0,32.015-14.328,32.015-32c0-17.672-14.329-32-32.015-32
		c0,0-329.582,0.253-329.61,0.238c0,0-9.833-2.093-10.887-10.781c-1.152-9.566,8.162-32.372,12.376-39.881
		c11.449-20.481,26.69-45.689,42.438-70.455c8.85-15.916,3.104-35.976-12.798-44.818c-15.916-8.836-35.976-3.104-44.825,12.804
		c0,0-21.872,32.049-42.705,48.183c-14.399,11.153-32.548,23.206-51.807,35.428c-24.906,9.84-122.508,65.861-131.808,95.052
		l-63.649,0.457C18.669,358.977,0,377.625,0,400.634v99.499c0,23.01,18.669,36.901,41.679,36.901h79.186
		c33.714,45.001,162.191,50.973,165.086,50.973l292.229-8.219c17.688,0,34.712-6.91,34.769-27.562
		c0.057-18.022-10.984-23.866-25.004-27.28l93.668,0.021c17.672,0,32.001-14.336,32.001-32.007
		c0-17.266-13.684-31.291-30.778-31.938l36.074-0.007c17.686,0,32-14.321,32-32C750.909,411.346,736.595,397.017,718.909,397.017z"
		/>
</g>
</svg>